<svg xmlns="http://www.w3.org/2000/svg" width="1600" height="1000" viewBox="0 0 1600 1000">
<rect width="1600" height="1000" rx="16" fill="#0d1117"/>
<line x1="800.0" y1="70.0" x2="911.3" y2="84.7" stroke="rgba(139,148,158,0.45)" stroke-width="1.6"/>
<line x1="800.0" y1="70.0" x2="1141.1" y2="761.8" stroke="#22d3ee" stroke-width="2.2"/>
<line x1="800.0" y1="70.0" x2="688.7" y2="84.7" stroke="rgba(139,148,158,0.45)" stroke-width="1.6"/>
<line x1="800.0" y1="70.0" x2="743.9" y2="73.7" stroke="rgba(139,148,158,0.45)" stroke-width="1.6"/>
<line x1="856.1" y1="73.7" x2="911.3" y2="84.7" stroke="rgba(139,148,158,0.45)" stroke-width="1.6"/>
<line x1="856.1" y1="73.7" x2="964.6" y2="102.7" stroke="rgba(139,148,158,0.45)" stroke-width="1.6"/>
<line x1="911.3" y1="84.7" x2="964.6" y2="102.7" stroke="rgba(139,148,158,0.45)" stroke-width="1.6"/>
<line x1="911.3" y1="84.7" x2="1015.0" y2="127.6" stroke="rgba(139,148,158,0.45)" stroke-width="1.6"/>
<line x1="964.6" y1="102.7" x2="1015.0" y2="127.6" stroke="rgba(139,148,158,0.45)" stroke-width="1.6"/>
<line x1="964.6" y1="102.7" x2="1061.8" y2="158.9" stroke="rgba(139,148,158,0.45)" stroke-width="1.6"/>
<line x1="1015.0" y1="127.6" x2="1061.8" y2="158.9" stroke="rgba(139,148,158,0.45)" stroke-width="1.6"/>
<line x1="1015.0" y1="127.6" x2="1104.1" y2="195.9" stroke="rgba(139,148,158,0.45)" stroke-width="1.6"/>
<line x1="1061.8" y1="158.9" x2="1104.1" y2="195.9" stroke="rgba(139,148,158,0.45)" stroke-width="1.6"/>
<line x1="1061.8" y1="158.9" x2="1215.3" y2="611.3" stroke="#22d3ee" stroke-width="2.2"/>
<line x1="1104.1" y1="195.9" x2="1141.1" y2="238.2" stroke="rgba(139,148,158,0.45)" stroke-width="1.6"/>
<line x1="1104.1" y1="195.9" x2="1172.4" y2="285.0" stroke="rgba(139,148,158,0.45)" stroke-width="1.6"/>
<line x1="1104.1" y1="195.9" x2="458.9" y2="761.8" stroke="#22d3ee" stroke-width="2.2"/>
<line x1="1141.1" y1="238.2" x2="1172.4" y2="285.0" stroke="rgba(139,148,158,0.45)" stroke-width="1.6"/>
<line x1="1141.1" y1="238.2" x2="1197.3" y2="335.4" stroke="rgba(139,148,158,0.45)" stroke-width="1.6"/>
<line x1="1172.4" y1="285.0" x2="1197.3" y2="335.4" stroke="rgba(139,148,158,0.45)" stroke-width="1.6"/>
<line x1="1172.4" y1="285.0" x2="1215.3" y2="388.7" stroke="rgba(139,148,158,0.45)" stroke-width="1.6"/>
<line x1="1197.3" y1="335.4" x2="1215.3" y2="388.7" stroke="rgba(139,148,158,0.45)" stroke-width="1.6"/>
<line x1="1197.3" y1="335.4" x2="1226.3" y2="443.9" stroke="rgba(139,148,158,0.45)" stroke-width="1.6"/>
<line x1="1215.3" y1="388.7" x2="1226.3" y2="443.9" stroke="rgba(139,148,158,0.45)" stroke-width="1.6"/>
<line x1="1215.3" y1="388.7" x2="1230.0" y2="500.0" stroke="rgba(139,148,158,0.45)" stroke-width="1.6"/>
<line x1="1215.3" y1="388.7" x2="1215.3" y2="611.3" stroke="#22d3ee" stroke-width="2.2"/>
<line x1="1226.3" y1="443.9" x2="1226.3" y2="556.1" stroke="rgba(139,148,158,0.45)" stroke-width="1.6"/>
<line x1="1226.3" y1="443.9" x2="402.7" y2="664.6" stroke="#22d3ee" stroke-width="2.2"/>
<line x1="1230.0" y1="500.0" x2="1226.3" y2="556.1" stroke="rgba(139,148,158,0.45)" stroke-width="1.6"/>
<line x1="1230.0" y1="500.0" x2="1215.3" y2="611.3" stroke="rgba(139,148,158,0.45)" stroke-width="1.6"/>
<line x1="1230.0" y1="500.0" x2="1141.1" y2="761.8" stroke="#22d3ee" stroke-width="2.2"/>
<line x1="1226.3" y1="556.1" x2="1215.3" y2="611.3" stroke="rgba(139,148,158,0.45)" stroke-width="1.6"/>
<line x1="1226.3" y1="556.1" x2="1197.3" y2="664.6" stroke="rgba(139,148,158,0.45)" stroke-width="1.6"/>
<line x1="1226.3" y1="556.1" x2="495.9" y2="195.9" stroke="#22d3ee" stroke-width="2.2"/>
<line x1="1215.3" y1="611.3" x2="1197.3" y2="664.6" stroke="rgba(139,148,158,0.45)" stroke-width="1.6"/>
<line x1="1197.3" y1="664.6" x2="1141.1" y2="761.8" stroke="rgba(139,148,158,0.45)" stroke-width="1.6"/>
<line x1="1197.3" y1="664.6" x2="495.9" y2="804.1" stroke="#22d3ee" stroke-width="2.2"/>
<line x1="1172.4" y1="715.0" x2="1141.1" y2="761.8" stroke="rgba(139,148,158,0.45)" stroke-width="1.6"/>
<line x1="1172.4" y1="715.0" x2="1104.1" y2="804.1" stroke="rgba(139,148,158,0.45)" stroke-width="1.6"/>
<line x1="1141.1" y1="761.8" x2="1104.1" y2="804.1" stroke="rgba(139,148,158,0.45)" stroke-width="1.6"/>
<line x1="1104.1" y1="804.1" x2="1061.8" y2="841.1" stroke="rgba(139,148,158,0.45)" stroke-width="1.6"/>
<line x1="1104.1" y1="804.1" x2="1015.0" y2="872.4" stroke="rgba(139,148,158,0.45)" stroke-width="1.6"/>
<line x1="1061.8" y1="841.1" x2="1015.0" y2="872.4" stroke="rgba(139,148,158,0.45)" stroke-width="1.6"/>
<line x1="1061.8" y1="841.1" x2="964.6" y2="897.3" stroke="rgba(139,148,158,0.45)" stroke-width="1.6"/>
<line x1="1061.8" y1="841.1" x2="688.7" y2="915.3" stroke="#22d3ee" stroke-width="2.2"/>
<line x1="1015.0" y1="872.4" x2="964.6" y2="897.3" stroke="rgba(139,148,158,0.45)" stroke-width="1.6"/>
<line x1="1015.0" y1="872.4" x2="911.3" y2="915.3" stroke="rgba(139,148,158,0.45)" stroke-width="1.6"/>
<line x1="964.6" y1="897.3" x2="911.3" y2="915.3" stroke="rgba(139,148,158,0.45)" stroke-width="1.6"/>
<line x1="964.6" y1="897.3" x2="856.1" y2="926.3" stroke="rgba(139,148,158,0.45)" stroke-width="1.6"/>
<line x1="911.3" y1="915.3" x2="856.1" y2="926.3" stroke="rgba(139,148,158,0.45)" stroke-width="1.6"/>
<line x1="911.3" y1="915.3" x2="800.0" y2="930.0" stroke="rgba(139,148,158,0.45)" stroke-width="1.6"/>
<line x1="856.1" y1="926.3" x2="743.9" y2="926.3" stroke="rgba(139,148,158,0.45)" stroke-width="1.6"/>
<line x1="856.1" y1="926.3" x2="373.7" y2="443.9" stroke="#22d3ee" stroke-width="2.2"/>
<line x1="800.0" y1="930.0" x2="743.9" y2="926.3" stroke="rgba(139,148,158,0.45)" stroke-width="1.6"/>
<line x1="800.0" y1="930.0" x2="688.7" y2="915.3" stroke="rgba(139,148,158,0.45)" stroke-width="1.6"/>
<line x1="743.9" y1="926.3" x2="688.7" y2="915.3" stroke="rgba(139,148,158,0.45)" stroke-width="1.6"/>
<line x1="743.9" y1="926.3" x2="635.4" y2="897.3" stroke="rgba(139,148,158,0.45)" stroke-width="1.6"/>
<line x1="688.7" y1="915.3" x2="635.4" y2="897.3" stroke="rgba(139,148,158,0.45)" stroke-width="1.6"/>
<line x1="635.4" y1="897.3" x2="585.0" y2="872.4" stroke="rgba(139,148,158,0.45)" stroke-width="1.6"/>
<line x1="635.4" y1="897.3" x2="538.2" y2="841.1" stroke="rgba(139,148,158,0.45)" stroke-width="1.6"/>
<line x1="585.0" y1="872.4" x2="538.2" y2="841.1" stroke="rgba(139,148,158,0.45)" stroke-width="1.6"/>
<line x1="585.0" y1="872.4" x2="495.9" y2="804.1" stroke="rgba(139,148,158,0.45)" stroke-width="1.6"/>
<line x1="538.2" y1="841.1" x2="495.9" y2="804.1" stroke="rgba(139,148,158,0.45)" stroke-width="1.6"/>
<line x1="538.2" y1="841.1" x2="458.9" y2="761.8" stroke="rgba(139,148,158,0.45)" stroke-width="1.6"/>
<line x1="495.9" y1="804.1" x2="458.9" y2="761.8" stroke="rgba(139,148,158,0.45)" stroke-width="1.6"/>
<line x1="495.9" y1="804.1" x2="427.6" y2="715.0" stroke="rgba(139,148,158,0.45)" stroke-width="1.6"/>
<line x1="495.9" y1="804.1" x2="427.6" y2="285.0" stroke="#22d3ee" stroke-width="2.2"/>
<line x1="458.9" y1="761.8" x2="427.6" y2="715.0" stroke="rgba(139,148,158,0.45)" stroke-width="1.6"/>
<line x1="427.6" y1="715.0" x2="402.7" y2="664.6" stroke="rgba(139,148,158,0.45)" stroke-width="1.6"/>
<line x1="427.6" y1="715.0" x2="384.7" y2="611.3" stroke="rgba(139,148,158,0.45)" stroke-width="1.6"/>
<line x1="402.7" y1="664.6" x2="384.7" y2="611.3" stroke="rgba(139,148,158,0.45)" stroke-width="1.6"/>
<line x1="402.7" y1="664.6" x2="373.7" y2="556.1" stroke="rgba(139,148,158,0.45)" stroke-width="1.6"/>
<line x1="384.7" y1="611.3" x2="373.7" y2="556.1" stroke="rgba(139,148,158,0.45)" stroke-width="1.6"/>
<line x1="384.7" y1="611.3" x2="370.0" y2="500.0" stroke="rgba(139,148,158,0.45)" stroke-width="1.6"/>
<line x1="384.7" y1="611.3" x2="743.9" y2="73.7" stroke="#22d3ee" stroke-width="2.2"/>
<line x1="373.7" y1="556.1" x2="370.0" y2="500.0" stroke="rgba(139,148,158,0.45)" stroke-width="1.6"/>
<line x1="373.7" y1="556.1" x2="373.7" y2="443.9" stroke="rgba(139,148,158,0.45)" stroke-width="1.6"/>
<line x1="370.0" y1="500.0" x2="373.7" y2="443.9" stroke="rgba(139,148,158,0.45)" stroke-width="1.6"/>
<line x1="370.0" y1="500.0" x2="384.7" y2="388.7" stroke="rgba(139,148,158,0.45)" stroke-width="1.6"/>
<line x1="373.7" y1="443.9" x2="384.7" y2="388.7" stroke="rgba(139,148,158,0.45)" stroke-width="1.6"/>
<line x1="373.7" y1="443.9" x2="402.7" y2="335.4" stroke="rgba(139,148,158,0.45)" stroke-width="1.6"/>
<line x1="384.7" y1="388.7" x2="402.7" y2="335.4" stroke="rgba(139,148,158,0.45)" stroke-width="1.6"/>
<line x1="384.7" y1="388.7" x2="427.6" y2="285.0" stroke="rgba(139,148,158,0.45)" stroke-width="1.6"/>
<line x1="402.7" y1="335.4" x2="427.6" y2="285.0" stroke="rgba(139,148,158,0.45)" stroke-width="1.6"/>
<line x1="402.7" y1="335.4" x2="458.9" y2="238.2" stroke="rgba(139,148,158,0.45)" stroke-width="1.6"/>
<line x1="427.6" y1="285.0" x2="495.9" y2="195.9" stroke="rgba(139,148,158,0.45)" stroke-width="1.6"/>
<line x1="458.9" y1="238.2" x2="495.9" y2="195.9" stroke="rgba(139,148,158,0.45)" stroke-width="1.6"/>
<line x1="458.9" y1="238.2" x2="538.2" y2="158.9" stroke="rgba(139,148,158,0.45)" stroke-width="1.6"/>
<line x1="495.9" y1="195.9" x2="538.2" y2="158.9" stroke="rgba(139,148,158,0.45)" stroke-width="1.6"/>
<line x1="538.2" y1="158.9" x2="585.0" y2="127.6" stroke="rgba(139,148,158,0.45)" stroke-width="1.6"/>
<line x1="538.2" y1="158.9" x2="635.4" y2="102.7" stroke="rgba(139,148,158,0.45)" stroke-width="1.6"/>
<line x1="585.0" y1="127.6" x2="635.4" y2="102.7" stroke="rgba(139,148,158,0.45)" stroke-width="1.6"/>
<line x1="585.0" y1="127.6" x2="688.7" y2="84.7" stroke="rgba(139,148,158,0.45)" stroke-width="1.6"/>
<line x1="635.4" y1="102.7" x2="688.7" y2="84.7" stroke="rgba(139,148,158,0.45)" stroke-width="1.6"/>
<line x1="635.4" y1="102.7" x2="743.9" y2="73.7" stroke="rgba(139,148,158,0.45)" stroke-width="1.6"/>
<line x1="688.7" y1="84.7" x2="743.9" y2="73.7" stroke="rgba(139,148,158,0.45)" stroke-width="1.6"/>
<circle cx="800.0" cy="70.0" r="10.0" fill="#6366f1" stroke="#0d1117" stroke-width="1.5"/>
<circle cx="856.1" cy="73.7" r="10.0" fill="#6366f1" stroke="#0d1117" stroke-width="1.5"/>
<circle cx="911.3" cy="84.7" r="10.0" fill="#6366f1" stroke="#0d1117" stroke-width="1.5"/>
<circle cx="964.6" cy="102.7" r="10.0" fill="#6366f1" stroke="#0d1117" stroke-width="1.5"/>
<circle cx="1015.0" cy="127.6" r="10.0" fill="#6366f1" stroke="#0d1117" stroke-width="1.5"/>
<circle cx="1061.8" cy="158.9" r="10.0" fill="#6366f1" stroke="#0d1117" stroke-width="1.5"/>
<circle cx="1104.1" cy="195.9" r="10.0" fill="#6366f1" stroke="#0d1117" stroke-width="1.5"/>
<circle cx="1141.1" cy="238.2" r="10.0" fill="#6366f1" stroke="#0d1117" stroke-width="1.5"/>
<circle cx="1172.4" cy="285.0" r="10.0" fill="#6366f1" stroke="#0d1117" stroke-width="1.5"/>
<circle cx="1197.3" cy="335.4" r="10.0" fill="#6366f1" stroke="#0d1117" stroke-width="1.5"/>
<circle cx="1215.3" cy="388.7" r="10.0" fill="#6366f1" stroke="#0d1117" stroke-width="1.5"/>
<circle cx="1226.3" cy="443.9" r="10.0" fill="#6366f1" stroke="#0d1117" stroke-width="1.5"/>
<circle cx="1230.0" cy="500.0" r="10.0" fill="#6366f1" stroke="#0d1117" stroke-width="1.5"/>
<circle cx="1226.3" cy="556.1" r="10.0" fill="#6366f1" stroke="#0d1117" stroke-width="1.5"/>
<circle cx="1215.3" cy="611.3" r="10.0" fill="#6366f1" stroke="#0d1117" stroke-width="1.5"/>
<circle cx="1197.3" cy="664.6" r="10.0" fill="#6366f1" stroke="#0d1117" stroke-width="1.5"/>
<circle cx="1172.4" cy="715.0" r="10.0" fill="#6366f1" stroke="#0d1117" stroke-width="1.5"/>
<circle cx="1141.1" cy="761.8" r="10.0" fill="#6366f1" stroke="#0d1117" stroke-width="1.5"/>
<circle cx="1104.1" cy="804.1" r="10.0" fill="#6366f1" stroke="#0d1117" stroke-width="1.5"/>
<circle cx="1061.8" cy="841.1" r="10.0" fill="#6366f1" stroke="#0d1117" stroke-width="1.5"/>
<circle cx="1015.0" cy="872.4" r="10.0" fill="#6366f1" stroke="#0d1117" stroke-width="1.5"/>
<circle cx="964.6" cy="897.3" r="10.0" fill="#6366f1" stroke="#0d1117" stroke-width="1.5"/>
<circle cx="911.3" cy="915.3" r="10.0" fill="#6366f1" stroke="#0d1117" stroke-width="1.5"/>
<circle cx="856.1" cy="926.3" r="10.0" fill="#6366f1" stroke="#0d1117" stroke-width="1.5"/>
<circle cx="800.0" cy="930.0" r="10.0" fill="#6366f1" stroke="#0d1117" stroke-width="1.5"/>
<circle cx="743.9" cy="926.3" r="10.0" fill="#6366f1" stroke="#0d1117" stroke-width="1.5"/>
<circle cx="688.7" cy="915.3" r="10.0" fill="#6366f1" stroke="#0d1117" stroke-width="1.5"/>
<circle cx="635.4" cy="897.3" r="10.0" fill="#6366f1" stroke="#0d1117" stroke-width="1.5"/>
<circle cx="585.0" cy="872.4" r="10.0" fill="#6366f1" stroke="#0d1117" stroke-width="1.5"/>
<circle cx="538.2" cy="841.1" r="10.0" fill="#6366f1" stroke="#0d1117" stroke-width="1.5"/>
<circle cx="495.9" cy="804.1" r="10.0" fill="#6366f1" stroke="#0d1117" stroke-width="1.5"/>
<circle cx="458.9" cy="761.8" r="10.0" fill="#6366f1" stroke="#0d1117" stroke-width="1.5"/>
<circle cx="427.6" cy="715.0" r="10.0" fill="#6366f1" stroke="#0d1117" stroke-width="1.5"/>
<circle cx="402.7" cy="664.6" r="10.0" fill="#6366f1" stroke="#0d1117" stroke-width="1.5"/>
<circle cx="384.7" cy="611.3" r="10.0" fill="#6366f1" stroke="#0d1117" stroke-width="1.5"/>
<circle cx="373.7" cy="556.1" r="10.0" fill="#6366f1" stroke="#0d1117" stroke-width="1.5"/>
<circle cx="370.0" cy="500.0" r="10.0" fill="#6366f1" stroke="#0d1117" stroke-width="1.5"/>
<circle cx="373.7" cy="443.9" r="10.0" fill="#6366f1" stroke="#0d1117" stroke-width="1.5"/>
<circle cx="384.7" cy="388.7" r="10.0" fill="#6366f1" stroke="#0d1117" stroke-width="1.5"/>
<circle cx="402.7" cy="335.4" r="10.0" fill="#6366f1" stroke="#0d1117" stroke-width="1.5"/>
<circle cx="427.6" cy="285.0" r="10.0" fill="#6366f1" stroke="#0d1117" stroke-width="1.5"/>
<circle cx="458.9" cy="238.2" r="10.0" fill="#6366f1" stroke="#0d1117" stroke-width="1.5"/>
<circle cx="495.9" cy="195.9" r="10.0" fill="#6366f1" stroke="#0d1117" stroke-width="1.5"/>
<circle cx="538.2" cy="158.9" r="10.0" fill="#6366f1" stroke="#0d1117" stroke-width="1.5"/>
<circle cx="585.0" cy="127.6" r="10.0" fill="#6366f1" stroke="#0d1117" stroke-width="1.5"/>
<circle cx="635.4" cy="102.7" r="10.0" fill="#6366f1" stroke="#0d1117" stroke-width="1.5"/>
<circle cx="688.7" cy="84.7" r="10.0" fill="#6366f1" stroke="#0d1117" stroke-width="1.5"/>
<circle cx="743.9" cy="73.7" r="10.0" fill="#6366f1" stroke="#0d1117" stroke-width="1.5"/>
</svg>
